<svg xmlns="http://www.w3.org/2000/svg" version="1.0" width="188.000000pt" height="177.000000pt" viewBox="0 0 188.000000 177.000000" preserveAspectRatio="xMidYMid meet">

<g transform="translate(0.000000,177.000000) scale(0.100000,-0.100000)" fill="#ffffff" stroke="none">
<path d="M785 1320 c-287 -6 -300 -9 -399 -75 -75 -50 -132 -115 -169 -193 -42 -90 -49 -208 -19 -309 50 -164 195 -283 357 -295 l50 -3 0 110 0 109 -44 9 c-57 11 -125 78 -141 139 -28 102 11 195 104 253 49 30 51 30 210 33 l161 3 108 107 c59 59 107 109 107 113 0 3 -15 5 -32 5 -18 -1 -150 -3 -293 -6z" fill="#ffffff"/>
<path d="M1008 1033 l-298 -298 0 -147 0 -148 120 1 120 1 0 107 0 107 58 56 57 57 166 -164 165 -163 147 0 c81 0 147 3 147 6 0 4 -107 114 -237 244 l-238 238 193 193 c105 106 192 195 192 198 0 3 -66 7 -147 8 l-146 2 -299 -298z" fill="#ffffff"/>
</g>
</svg>