<?xml version="1.0" standalone="no"?>
<!DOCTYPE svg PUBLIC "-//W3C//DTD SVG 20010904//EN"
 "http://www.w3.org/TR/2001/REC-SVG-20010904/DTD/svg10.dtd">
<svg version="1.0" xmlns="http://www.w3.org/2000/svg"
 width="187.000000pt" height="200.000000pt" viewBox="0 0 187.000000 200.000000"
 preserveAspectRatio="xMidYMid meet">

<g transform="translate(0.000000,200.000000) scale(0.100000,-0.100000)"
fill="#ff6b00" stroke="none">
<path d="M1077 1938 c-56 -12 -93 -44 -107 -92 -10 -36 -9 -50 9 -100 29 -84
35 -85 31 -8 -2 35 15 43 35 16 10 -14 14 -13 31 12 10 16 21 38 24 49 5 17
15 20 65 21 53 1 61 4 72 25 10 19 10 28 -1 43 -16 25 -109 44 -159 34z"/>
<path d="M1127 1774 c-9 -9 18 -34 37 -34 9 0 16 7 16 15 0 8 -4 15 -9 15 -5
0 -16 2 -23 5 -8 3 -17 3 -21 -1z"/>
<path d="M1207 1763 c-4 -3 -7 -11 -7 -17 0 -6 5 -5 12 2 6 6 9 14 7 17 -3 3
-9 2 -12 -2z"/>
<path d="M1064 1679 c2 -16 10 -36 17 -46 12 -14 12 -16 -1 -11 -8 2 -20 14
-26 26 -19 39 -24 37 -24 -9 0 -25 6 -54 14 -64 13 -18 15 -18 40 -2 15 10 31
15 35 12 10 -6 -31 -131 -49 -149 -26 -25 -80 94 -86 189 -1 21 -6 41 -12 43
-6 2 -30 -2 -54 -9 -24 -7 -46 -12 -51 -11 -4 1 -24 -5 -45 -14 -32 -14 -34
-18 -17 -23 53 -16 75 -49 75 -110 0 -42 -33 -131 -49 -131 -5 0 -19 14 -31
31 -18 24 -28 30 -54 27 -24 -2 -31 -7 -29 -23 1 -10 -5 -31 -13 -47 -8 -15
-14 -37 -14 -49 0 -50 -35 -133 -62 -148 -27 -16 -38 -41 -18 -41 6 0 10 -4
10 -10 0 -6 -9 -6 -23 -1 -36 14 -30 60 13 89 44 29 46 33 54 112 l8 64 -41
-51 c-23 -28 -41 -54 -41 -57 0 -3 -9 -15 -21 -27 -12 -12 -19 -29 -16 -40 3
-11 -10 -38 -34 -70 -44 -59 -47 -83 -25 -188 14 -62 36 -96 66 -103 8 -2 24
-12 36 -24 12 -11 35 -26 52 -33 l31 -13 -27 -24 c-17 -15 -22 -23 -13 -24 8
0 25 -9 37 -21 17 -16 21 -28 17 -57 -4 -33 0 -41 39 -78 54 -52 95 -64 103
-32 12 53 13 78 4 83 -5 4 -9 15 -9 25 0 10 -8 21 -17 24 -10 3 -4 3 12 1 41
-7 66 -12 91 -20 16 -5 26 3 51 43 19 30 48 60 72 74 22 12 41 26 41 30 0 3
-18 20 -39 37 -47 37 -89 40 -203 12 -88 -21 -112 -15 -166 38 -18 18 -48 37
-67 42 -21 6 -42 21 -52 37 -9 15 -23 32 -30 38 -8 7 -15 32 -16 55 -2 38 1
44 19 47 17 2 20 -3 20 -32 0 -35 38 -91 55 -81 4 3 10 1 14 -5 3 -5 1 -10 -5
-10 -6 0 -8 -4 -5 -10 3 -5 14 -10 23 -10 9 0 29 -6 44 -14 23 -12 30 -12 56
4 17 10 38 16 49 14 10 -3 38 -6 63 -7 35 -2 47 -7 56 -25 6 -12 15 -26 19
-30 5 -4 5 -1 1 6 -4 6 -3 12 3 12 6 0 10 21 9 47 0 27 4 49 11 51 6 2 11 10
11 18 0 9 4 13 9 10 5 -3 16 13 25 37 9 23 32 59 51 80 19 21 35 43 35 48 0 6
6 7 13 3 8 -5 8 -3 -2 9 -12 15 -10 19 9 35 21 17 21 19 6 25 -9 4 -15 3 -11
-2 11 -18 -20 -17 -35 1 -13 17 -20 18 -64 8 -82 -18 -85 -14 -79 93 10 162 3
214 -32 239 -21 16 11 7 34 -9 14 -9 21 -11 17 -5 -4 7 -1 12 8 12 15 0 28
-44 30 -101 1 -15 5 -25 10 -22 5 3 7 0 4 -8 -2 -7 12 -31 31 -53 20 -21 35
-43 33 -48 -1 -5 11 1 28 14 33 24 67 86 73 133 3 22 10 31 26 33 21 3 22 1
16 -50 -4 -29 -8 -59 -10 -65 -3 -7 0 -13 6 -13 6 0 9 -7 5 -15 -3 -8 -1 -15
4 -15 21 0 31 44 28 123 l-3 82 -32 2 c-54 4 -61 6 -57 18 3 6 -11 27 -30 47
l-35 36 3 -29z m-124 -48 c0 -5 -7 -11 -14 -14 -10 -4 -13 -1 -9 9 6 15 23 19
23 5z m70 -423 c0 -20 -50 -98 -64 -98 -22 0 -14 33 16 73 30 37 48 47 48 25z
m-256 -46 c2 -4 -14 -8 -37 -9 -22 -2 -37 1 -33 5 4 4 12 8 17 8 5 1 12 2 16
3 3 0 -2 11 -13 23 l-19 22 32 -23 c18 -12 34 -25 37 -29z m86 -37 c25 -13 41
-24 36 -25 -12 0 -96 40 -96 46 0 8 16 3 60 -21z m-169 -26 c-14 -5 -28 -6
-32 -2 -4 4 6 9 24 10 30 1 31 1 8 -8z m124 -57 c-2 -2 -20 2 -40 9 -29 11
-32 15 -18 20 16 5 67 -20 58 -29z m-15 -334 c0 -5 -11 -1 -25 8 -14 9 -25 18
-25 20 0 2 11 -2 25 -8 14 -6 25 -15 25 -20z m-53 -13 c-6 -7 -15 -11 -19 -8
-14 8 -8 19 12 20 16 1 17 -1 7 -12z m57 -20 c3 -8 1 -15 -4 -15 -6 0 -10 7
-10 15 0 8 2 15 4 15 2 0 6 -7 10 -15z"/>
<path d="M1156 1664 c-19 -18 -21 -39 -3 -27 6 4 20 6 30 5 11 -2 17 3 17 17
0 25 -22 27 -44 5z"/>
<path d="M1175 1620 c3 -5 8 -10 11 -10 2 0 4 5 4 10 0 6 -5 10 -11 10 -5 0
-7 -4 -4 -10z"/>
<path d="M1171 1336 c-13 -7 -30 -27 -37 -45 -12 -29 -12 -32 14 -45 15 -8 46
-36 70 -62 23 -26 45 -45 48 -42 3 3 -7 29 -22 58 -15 29 -32 74 -38 100 -11
47 -12 48 -35 36z"/>
<path d="M1392 1104 c-64 -26 -93 -145 -52 -212 43 -70 123 -90 194 -49 54 31
78 78 73 145 -3 45 -9 59 -40 90 -33 32 -43 37 -91 38 -29 1 -67 -5 -84 -12z"/>
<path d="M641 658 c0 -13 -2 -33 -6 -46 -6 -18 1 -31 37 -67 65 -65 93 -60 34
6 -42 47 -45 54 -40 90 5 32 4 39 -10 39 -10 0 -15 -8 -15 -22z"/>
<path d="M840 641 c0 -6 4 -13 10 -16 6 -3 7 1 4 9 -7 18 -14 21 -14 7z"/>
<path d="M1094 586 c-3 -8 -3 -20 1 -26 11 -17 -8 -11 -31 11 l-22 21 5 -124
c5 -134 -1 -157 -36 -139 -18 10 -21 9 -21 -7 0 -34 -22 -82 -37 -82 -8 0 -13
-7 -11 -17 3 -15 14 -18 61 -17 36 1 54 -2 50 -9 -4 -6 2 -8 15 -5 13 4 20 2
19 -6 -1 -6 8 -11 21 -10 12 0 22 -3 22 -8 0 -4 10 -8 23 -7 22 0 22 0 1 9
-11 4 -32 22 -47 39 -16 19 -27 26 -30 18 -2 -6 -8 -9 -12 -5 -4 4 -2 15 6 24
25 30 75 217 81 299 3 48 2 50 -25 53 -17 2 -29 -2 -33 -12z"/>
<path d="M530 560 c-19 -9 -52 -20 -73 -24 -36 -7 -38 -6 -32 13 l6 21 -43
-20 c-24 -11 -55 -20 -70 -20 -42 0 -62 -37 -53 -100 5 -35 3 -50 -5 -50 -6 0
-8 5 -4 13 4 6 -4 0 -19 -14 -14 -14 -31 -39 -37 -55 l-10 -29 24 28 c14 15
28 27 31 27 4 0 13 7 21 15 11 11 27 13 60 8 l46 -6 -4 29 c-3 27 1 30 52 47
30 10 106 24 167 30 l113 11 -27 28 c-19 20 -32 26 -50 22 -17 -5 -23 -2 -23
10 0 9 -6 16 -14 16 -8 0 -16 4 -18 9 -1 5 -19 1 -38 -9z"/>
<path d="M218 513 c-24 -12 -26 -17 -18 -45 5 -17 7 -35 4 -39 -3 -5 2 -6 11
-3 11 5 15 14 11 29 -6 22 15 51 27 39 3 -3 4 1 3 10 -3 23 -8 24 -38 9z"/>
<path d="M100 284 c0 -60 13 -94 35 -94 24 0 25 17 4 65 -17 39 -18 49 -7 63
9 11 10 14 1 8 -7 -4 -13 -2 -13 3 0 6 -4 11 -10 11 -5 0 -10 -25 -10 -56z"/>
<path d="M953 159 c2 -40 15 -42 57 -8 l25 20 -33 -3 c-21 -2 -36 3 -42 12 -7
11 -9 5 -7 -21z"/>
<path d="M1250 108 c-15 -6 -64 -8 -122 -4 -116 6 -133 -9 -20 -18 77 -6 131
1 168 22 24 14 7 14 -26 0z"/>
</g>
</svg>
